# xmcd
#
# Track frame offsets:
#	150
#	16039
#	33277
#	51039
#	68105
#	85185
#	101716
#	117790
#	135721
#	148009
#	164147
#	179875
#	195968
#	209678
#
# Disc length: 2988
#
# Revision: 2
# Processed by: cddbd v1.5.1PL0 Copyright (c) Steve Scherf et al.
# Submitted via: audiograbber 1.82.02
# Normalized: r1:DSETVAR1
#
DISCID=c90baa0e
DTITLE=Various Artist - Hot Hits Country Vol. 82
DYEAR=1998
DGENRE=Country
TTITLE0=Clint Black - Loosen Up My Strings
TTITLE1=Travis Tritt - If I Lost You
TTITLE2=Reba McEntire - Forever Love
TTITLE3=Collin Raye - Someone You Used To Know
TTITLE4=Lee Ann Womack - A Little Past Little Rock
TTITLE5=Mark Wills - Don't Laugh At Me
TTITLE6=Terri Clark - You're Easy On The Eyes
TTITLE7=Sammy Kershaw - Honky Tonk America
TTITLE8=Clay Walker - You're Beginning To Get To Me
TTITLE9=Aaron Tippin - For You I Will
TTITLE10=Kenny Chesney - I Will Stand
TTITLE11=Ty Herndon - It Must Be Love
TTITLE12=Joe Diffie - Poor Me
TTITLE13=Blackhawk - There You Have It
EXTD=
EXTT0=
EXTT1=
EXTT2=
EXTT3=
EXTT4=
EXTT5=
EXTT6=
EXTT7=
EXTT8=
EXTT9=
EXTT10=
EXTT11=
EXTT12=
EXTT13=
PLAYORDER=
